<?xml version="1.0" encoding="iso-8859-1"?>
<!-- Generator: Adobe Illustrator 19.0.0, SVG Export Plug-In . SVG Version: 6.00 Build 0)  -->
<svg version="1.1" id="Capa_1" xmlns="http://www.w3.org/2000/svg" xmlns:xlink="http://www.w3.org/1999/xlink" x="0px" y="0px"
	 viewBox="0 0 511.993 511.993" style="enable-background:new 0 0 511.993 511.993;" xml:space="preserve">
<linearGradient id="SVGID_1_" gradientUnits="userSpaceOnUse" x1="69.654" y1="448.2119" x2="416.1364" y2="101.7296" gradientTransform="matrix(1.0449 0 0 -1.0449 2.1993 543.3086)">
	<stop  offset="0" style="stop-color:#FFE56C"/>
	<stop  offset="1" style="stop-color:#F2B329"/>
</linearGradient>
<circle style="fill:url(#SVGID_1_);" cx="255.996" cy="255.996" r="255.996"/>
<linearGradient id="SVGID_2_" gradientUnits="userSpaceOnUse" x1="84.8952" y1="287.3662" x2="377.3952" y2="287.3662" gradientTransform="matrix(1.0449 0 0 -1.0449 2.1993 543.3086)">
	<stop  offset="0" style="stop-color:#2499FF"/>
	<stop  offset="1" style="stop-color:#004DB1"/>
</linearGradient>
<path style="fill:url(#SVGID_2_);" d="M392.404,269.367c0,75.213-61.19,136.403-136.403,136.403s-136.403-61.19-136.403-136.403
	s61.19-136.403,136.403-136.403v52.643l117.2-79.392l-117.2-79.392v52.644c-104.712,0-189.901,85.189-189.901,189.9
	s85.189,189.9,189.901,189.9s189.901-85.189,189.901-189.9L392.404,269.367L392.404,269.367z"/>
<linearGradient id="SVGID_3_" gradientUnits="userSpaceOnUse" x1="84.8952" y1="418.3182" x2="377.3952" y2="418.3182" gradientTransform="matrix(1.0449 0 0 -1.0449 2.1993 543.3086)">
	<stop  offset="0" style="stop-color:#5262E6"/>
	<stop  offset="1" style="stop-color:#0021B5"/>
</linearGradient>
<polygon style="fill:url(#SVGID_3_);" points="256.001,132.964 256.001,185.608 373.2,106.214 256.001,26.822 256.001,79.466 
	255.996,79.466 255.996,132.964 "/>
<g>
</g>
<g>
</g>
<g>
</g>
<g>
</g>
<g>
</g>
<g>
</g>
<g>
</g>
<g>
</g>
<g>
</g>
<g>
</g>
<g>
</g>
<g>
</g>
<g>
</g>
<g>
</g>
<g>
</g>
</svg>
